<svg height="512pt" viewBox="-56 0 512 512" width="512pt" xmlns="http://www.w3.org/2000/svg"><path d="m271.992188 88c-1.535157 0-3.097657-.449219-4.472657-1.367188l-24-16.199218c-3.664062-2.480469-4.625-7.449219-2.160156-11.113282 2.472656-3.65625 7.441406-4.617187 11.113281-2.160156l24 16.199219c3.664063 2.480469 4.625 7.449219 2.160156 11.113281-1.542968 2.296875-4.074218 3.527344-6.640624 3.527344zm0 0"/><path d="m204 79.800781c-28.894531 0-53.496094-8.066406-54.519531-8.410156-4.183594-1.398437-6.457031-5.917969-5.074219-10.109375 1.394531-4.183594 5.914062-6.464844 10.113281-5.082031.234375.082031 23.265625 7.59375 49.488281 7.59375 25.425782 0 40.320313-7.105469 40.472657-7.175781 3.953125-1.914063 8.75-.304688 10.695312 3.65625 1.945313 3.949218.34375 8.71875-3.589843 10.6875-.746094.359374-18.097657 8.839843-47.585938 8.839843zm0 0"/><path d="m128.007812 88c-2.566406 0-5.097656-1.230469-6.640624-3.519531-2.472657-3.664063-1.503907-8.632813 2.160156-11.113281l24-16.199219c3.671875-2.464844 8.632812-1.503907 11.113281 2.160156 2.472656 3.664063 1.503906 8.632813-2.160156 11.113281l-24 16.199219c-1.375.910156-2.9375 1.359375-4.472657 1.359375zm0 0"/><path d="m200.238281 264c-4.421875 0-8.039062-3.574219-8.039062-8s3.535156-8 7.953125-8h.085937c4.417969 0 8 3.574219 8 8s-3.582031 8-8 8zm0 0"/><path d="m200.238281 304c-4.421875 0-8.039062-3.574219-8.039062-8s3.535156-8 7.953125-8h.085937c4.417969 0 8 3.574219 8 8s-3.582031 8-8 8zm0 0"/><path d="m200.238281 344c-4.421875 0-8.039062-3.574219-8.039062-8s3.535156-8 7.953125-8h.085937c4.417969 0 8 3.574219 8 8s-3.582031 8-8 8zm0 0"/><path d="m200.238281 384c-4.421875 0-8.039062-3.574219-8.039062-8s3.535156-8 7.953125-8h.085937c4.417969 0 8 3.574219 8 8s-3.582031 8-8 8zm0 0"/><path d="m272 88c-4.425781 0-8-3.574219-8-8 0-35.289062-28.710938-64-64-64s-64 28.710938-64 64c0 4.425781-3.574219 8-8 8s-8-3.574219-8-8c0-44.113281 35.886719-80 80-80s80 35.886719 80 80c0 4.425781-3.574219 8-8 8zm0 0"/><path d="m200 200c-44.113281 0-80-35.886719-80-80 0-4.425781 3.574219-8 8-8s8 3.574219 8 8c0 35.289062 28.710938 64 64 64s64-28.710938 64-64c0-4.425781 3.574219-8 8-8s8 3.574219 8 8c0 44.113281-35.886719 80-80 80zm0 0"/><path d="m128 128c-4.425781 0-8-3.574219-8-8v-40c0-4.425781 3.574219-8 8-8s8 3.574219 8 8v40c0 4.425781-3.574219 8-8 8zm0 0"/><path d="m272 128c-4.425781 0-8-3.574219-8-8v-40c0-4.425781 3.574219-8 8-8s8 3.574219 8 8v40c0 4.425781-3.574219 8-8 8zm0 0"/><path d="m327.992188 480c-4.425782 0-8-3.574219-8-8s3.574218-8 8-8c13.230468 0 24.007812-10.777344 24.007812-24.007812 0-13.230469-10.777344-24.007813-24.007812-24.007813-4.425782 0-8-3.578125-8-8 0-4.425781 3.574218-8 8-8 22.0625 0 40.007812 17.945313 40.007812 40.007813s-17.945312 40.007812-40.007812 40.007812zm0 0"/><path d="m200 480c-22.054688 0-40-17.945312-40-40s17.945312-40 40-40c4.425781 0 8 3.574219 8 8s-3.574219 8-8 8c-13.230469 0-24 10.769531-24 24s10.769531 24 24 24c4.425781 0 8 3.574219 8 8s-3.574219 8-8 8zm0 0"/><path d="m80 480c-22.054688 0-40-17.945312-40-40s17.945312-40 40-40c4.425781 0 8 3.574219 8 8s-3.574219 8-8 8c-13.230469 0-24 10.769531-24 24s10.769531 24 24 24c4.425781 0 8 3.574219 8 8s-3.574219 8-8 8zm0 0"/><path d="m32 360c-4.425781 0-8-3.574219-8-8s3.574219-8 8-8c26.472656 0 48-21.527344 48-48 0-4.425781 3.574219-8 8-8s8 3.574219 8 8c0 35.289062-28.710938 64-64 64zm0 0"/><path d="m88 288c-4.425781 0-8-3.574219-8-8 0-44.113281 35.886719-79.992188 80-79.992188 4.425781 0 8 3.578126 8 8 0 4.425782-3.574219 8-8 8-35.289062 0-64 28.703126-64 63.992188 0 4.425781-3.574219 8-8 8zm0 0"/><path d="m32 400c-4.425781 0-8-3.574219-8-8s3.574219-8 8-8c48.519531 0 88-39.480469 88-88 0-4.425781 3.574219-8 8-8s8 3.574219 8 8c0 57.34375-46.65625 104-104 104zm0 0"/><path d="m28 400c-15.441406 0-28-12.558594-28-28s12.558594-28 28-28c4.425781 0 8 3.574219 8 8s-3.574219 8-8 8c-6.617188 0-12 5.382812-12 12s5.382812 12 12 12c4.425781 0 8 3.574219 8 8s-3.574219 8-8 8zm0 0"/><path d="m88 304c-4.425781 0-8-3.574219-8-8v-16c0-4.425781 3.574219-8 8-8s8 3.574219 8 8v16c0 4.425781-3.574219 8-8 8zm0 0"/><path d="m168 216.007812h-8c-4.425781 0-8-3.574218-8-8 0-4.421874 3.574219-8 8-8h8c4.425781 0 8 3.578126 8 8 0 4.425782-3.574219 8-8 8zm0 0"/><path d="m128 408c-4.425781 0-8-3.574219-8-8v-104c0-4.425781 3.574219-8 8-8s8 3.574219 8 8v104c0 4.425781-3.574219 8-8 8zm0 0"/><path d="m32 400h-4c-4.425781 0-8-3.574219-8-8s3.574219-8 8-8h4c4.425781 0 8 3.574219 8 8s-3.574219 8-8 8zm0 0"/><path d="m32 360h-4c-4.425781 0-8-3.574219-8-8s3.574219-8 8-8h4c4.425781 0 8 3.574219 8 8s-3.574219 8-8 8zm0 0"/><path d="m368 360c-35.289062 0-64-28.710938-64-64 0-4.425781 3.574219-8 8-8s8 3.574219 8 8c0 26.472656 21.527344 48 48 48 4.425781 0 8 3.574219 8 8s-3.574219 8-8 8zm0 0"/><path d="m312 288c-4.425781 0-8-3.574219-8-8 0-35.289062-28.710938-63.992188-64-63.992188-4.425781 0-8-3.574218-8-8 0-4.421874 3.574219-8 8-8 44.113281 0 80 35.878907 80 79.992188 0 4.425781-3.574219 8-8 8zm0 0"/><path d="m368 400c-57.34375 0-104-46.65625-104-104 0-4.425781 3.574219-8 8-8s8 3.574219 8 8c0 48.519531 39.480469 88 88 88 4.425781 0 8 3.574219 8 8s-3.574219 8-8 8zm0 0"/><path d="m372 400c-4.425781 0-8-3.574219-8-8s3.574219-8 8-8c6.617188 0 12-5.382812 12-12s-5.382812-12-12-12c-4.425781 0-8-3.574219-8-8s3.574219-8 8-8c15.441406 0 28 12.558594 28 28s-12.558594 28-28 28zm0 0"/><path d="m312 304c-4.425781 0-8-3.574219-8-8v-16c0-4.425781 3.574219-8 8-8s8 3.574219 8 8v16c0 4.425781-3.574219 8-8 8zm0 0"/><path d="m240 216.007812h-8c-4.425781 0-8-3.574218-8-8 0-4.421874 3.574219-8 8-8h8c4.425781 0 8 3.578126 8 8 0 4.425782-3.574219 8-8 8zm0 0"/><path d="m272 408c-4.425781 0-8-3.574219-8-8v-104c0-4.425781 3.574219-8 8-8s8 3.574219 8 8v104c0 4.425781-3.574219 8-8 8zm0 0"/><path d="m372 400h-4c-4.425781 0-8-3.574219-8-8s3.574219-8 8-8h4c4.425781 0 8 3.574219 8 8s-3.574219 8-8 8zm0 0"/><path d="m372 360h-4c-4.425781 0-8-3.574219-8-8s3.574219-8 8-8h4c4.425781 0 8 3.574219 8 8s-3.574219 8-8 8zm0 0"/><path d="m216 232c-2.046875 0-4.097656-.785156-5.65625-2.34375-3.128906-3.128906-3.128906-8.183594 0-11.3125l16-16c3.128906-3.128906 8.183594-3.128906 11.3125 0s3.128906 8.183594 0 11.3125l-16 16c-1.558594 1.558594-3.609375 2.34375-5.65625 2.34375zm0 0"/><path d="m215.992188 232c-1.199219 0-2.425782-.273438-3.566407-.839844l-16-8c-3.953125-1.976562-5.554687-6.785156-3.578125-10.734375 1.984375-3.953125 6.777344-5.546875 10.738282-3.578125l16 8c3.949218 1.976563 5.550781 6.785156 3.574218 10.738282-1.40625 2.796874-4.230468 4.414062-7.167968 4.414062zm0 0"/><path d="m184.007812 232c-2.9375 0-5.761718-1.617188-7.167968-4.425781-1.976563-3.949219-.375-8.757813 3.574218-10.734375l16-8c3.953126-1.96875 8.753907-.375 10.738282 3.574218 1.976562 3.953126.375 8.761719-3.578125 10.738282l-16 8c-1.140625.574218-2.367188.847656-3.566407.847656zm0 0"/><path d="m184 232c-2.046875 0-4.097656-.785156-5.65625-2.34375l-16-16c-3.128906-3.128906-3.128906-8.183594 0-11.3125s8.183594-3.128906 11.3125 0l16 16c3.128906 3.128906 3.128906 8.183594 0 11.3125-1.558594 1.558594-3.609375 2.34375-5.65625 2.34375zm0 0"/><path d="m168 216c-4.425781 0-8-3.574219-8-8v-23.496094c0-4.425781 3.574219-8 8-8s8 3.574219 8 8v23.496094c0 4.425781-3.574219 8-8 8zm0 0"/><path d="m232 216c-4.425781 0-8-3.574219-8-8v-23.496094c0-4.425781 3.574219-8 8-8s8 3.574219 8 8v23.496094c0 4.425781-3.574219 8-8 8zm0 0"/><path d="m80 416c-4.414062 0-8-3.574219-8-8 0-4.414062 3.574219-8 8-8l247.992188-.015625c4.414062 0 8 3.574219 8 8 0 4.414063-3.578126 8-8 8zm0 0"/><path d="m327.992188 480h-247.992188c-4.425781 0-8-3.574219-8-8s3.574219-8 8-8h247.992188c4.421874 0 8 3.574219 8 8s-3.578126 8-8 8zm0 0"/><path d="m320 512h-240c-4.425781 0-8-3.574219-8-8s3.574219-8 8-8h240c4.425781 0 8 3.574219 8 8s-3.574219 8-8 8zm0 0"/></svg>